<?xml version="1.0" encoding="utf-8"?>
<!-- Generator: Adobe Illustrator 16.0.4, SVG Export Plug-In . SVG Version: 6.00 Build 0)  -->
<!DOCTYPE svg PUBLIC "-//W3C//DTD SVG 1.1//EN" "http://www.w3.org/Graphics/SVG/1.1/DTD/svg11.dtd">
<svg version="1.1" id="Layer_1" xmlns="http://www.w3.org/2000/svg" xmlns:xlink="http://www.w3.org/1999/xlink" x="0px" y="0px"
	 width="12px" height="12px" viewBox="0 0 12 12" enable-background="new 0 0 12 12" xml:space="preserve">
<g>
	<path fill="#7C8990" d="M8.248,7.001l1.5-1.5v4.999c0,0.819-0.68,1.5-1.5,1.5H1.5C0.68,12,0,11.32,0,10.501V3.002
		c0-0.819,0.68-1.5,1.5-1.5h5.749l-1.5,1.5H1.5v7.499h6.749V7.001z M8.748,1.503l1.75,1.75L5.276,8.474
		C5.263,8.487,5.235,8.515,5.207,8.515l-2.402,1c0,0,0,0-0.014,0.014c-0.028,0-0.056,0.014-0.083,0.014
		c-0.055,0-0.125-0.028-0.167-0.083C2.472,9.39,2.444,9.293,2.472,9.209c0.014-0.014,0.014-0.014,0.014-0.014l1-2.402
		c0-0.028,0.028-0.056,0.042-0.069L8.748,1.503z M11.928,1.822c0.097-0.097,0.097-0.25,0-0.347l-1.402-1.402
		c-0.097-0.097-0.25-0.097-0.347,0L9.498,0.753l1.75,1.75L11.928,1.822z"/>
</g>
</svg>
