<?xml version="1.0" encoding="utf-8"?>
<!-- Generator: Adobe Illustrator 16.0.4, SVG Export Plug-In . SVG Version: 6.00 Build 0)  -->
<!DOCTYPE svg PUBLIC "-//W3C//DTD SVG 1.1//EN" "http://www.w3.org/Graphics/SVG/1.1/DTD/svg11.dtd">
<svg version="1.1" id="Layer_1" xmlns="http://www.w3.org/2000/svg" xmlns:xlink="http://www.w3.org/1999/xlink" x="0px" y="0px"
	 width="34px" height="34px" viewBox="0 0 34 34" enable-background="new 0 0 34 34" xml:space="preserve">
<g>
	<path d="M17,0C7.626,0,0,7.626,0,17s7.626,17,17,17s17-7.626,17-17S26.374,0,17,0z M26.311,24.896
		c1.811-2.132,2.91-4.887,2.91-7.896s-1.1-5.764-2.91-7.896l1.965-1.964C30.586,9.779,32,13.224,32,17s-1.414,7.221-3.725,9.861
		L26.311,24.896z M11.918,23.496c1.435,1.127,3.207,1.754,5.08,1.754H17c1.873,0,3.646-0.626,5.082-1.753l1.399,1.399
		c-1.765,1.452-4.023,2.325-6.481,2.325c-2.459,0-4.717-0.873-6.482-2.325L11.918,23.496z M22.293,20.879v-0.021l-0.261-0.229
		l-0.136,0.229v0.027v0C20.701,22.388,18.917,23.25,17,23.25c0,0-0.001,0-0.002,0c-1.93,0-3.721-0.872-4.916-2.392l-0.018,0.014
		l-0.125-0.243l-0.188,0.174l0.009,0.022l-2.655,2.656C7.652,21.716,6.779,19.458,6.779,17s0.873-4.716,2.325-6.481l2.538,2.539
		l0.013-0.012l0.265,0.28l0.333-0.375l-0.001-0.001c1.191-1.396,2.905-2.199,4.748-2.199c1.877,0,3.639,0.833,4.832,2.286
		l0.016-0.013l0.195,0.302l0.25-0.188l-0.025-0.043l0.026,0.027l2.602-2.602c1.452,1.765,2.325,4.023,2.325,6.481
		s-0.873,4.716-2.325,6.481L22.293,20.879z M22.084,10.502C20.646,9.375,18.867,8.75,17,8.75c-1.873,0-3.646,0.626-5.082,1.754
		l-1.399-1.399C12.283,7.652,14.541,6.779,17,6.779c2.458,0,4.717,0.873,6.481,2.325L22.084,10.502z M26.861,5.725l-1.965,1.964
		C22.764,5.878,20.01,4.779,17,4.779s-5.765,1.099-7.896,2.91L7.139,5.725C9.779,3.414,13.224,2,17,2S24.221,3.414,26.861,5.725z
		 M5.725,7.139l1.965,1.964C5.879,11.236,4.779,13.99,4.779,17s1.1,5.764,2.91,7.896l-1.965,1.964C3.413,24.221,2,20.776,2,17
		S3.414,9.779,5.725,7.139z M7.139,28.275l1.965-1.964c2.132,1.811,4.887,2.91,7.896,2.91s5.764-1.099,7.896-2.91l1.965,1.964
		C24.221,30.586,20.776,32,17,32S9.779,30.587,7.139,28.275z"/>
	<path d="M20.918,16c-0.449-1.752-2.027-3.057-3.918-3.057c-1.89,0-3.469,1.305-3.918,3.057H11.5v2h1.582
		c0.449,1.752,2.028,3.057,3.918,3.057c1.891,0,3.469-1.305,3.918-3.057H22.5v-2H20.918z M17,19.057
		c-1.135,0-2.057-0.923-2.057-2.057s0.922-2.057,2.057-2.057s2.057,0.922,2.057,2.057S18.135,19.057,17,19.057z"/>
</g>
</svg>
