<?xml version="1.0" encoding="utf-8"?>
<!-- Generator: Adobe Illustrator 16.0.4, SVG Export Plug-In . SVG Version: 6.00 Build 0)  -->
<!DOCTYPE svg PUBLIC "-//W3C//DTD SVG 1.1//EN" "http://www.w3.org/Graphics/SVG/1.1/DTD/svg11.dtd">
<svg version="1.1" id="Layer_1" xmlns="http://www.w3.org/2000/svg" xmlns:xlink="http://www.w3.org/1999/xlink" x="0px" y="0px"
	 width="80.125px" height="16.015px" viewBox="0 0 80.125 16.015" enable-background="new 0 0 80.125 16.015" xml:space="preserve">
<g>
	<path fill="#E66E4C" d="M8.008,2c3.312,0,6.007,2.695,6.007,6.008s-2.695,6.007-6.007,6.007S2,11.32,2,8.008S4.695,2,8.008,2
		 M8.008,0C3.585,0,0,3.585,0,8.008c0,4.422,3.585,8.007,8.008,8.007c4.422,0,8.007-3.585,8.007-8.007C16.015,3.585,12.43,0,8.008,0
		L8.008,0z"/>
</g>
<g>
	<g>
		<path fill="#F3844C" d="M24.023,2c3.312,0,6.007,2.695,6.007,6.008s-2.695,6.007-6.007,6.007s-6.008-2.695-6.008-6.007
			S20.71,2,24.023,2 M24.023,0c-4.423,0-8.008,3.585-8.008,8.008c0,4.422,3.585,8.007,8.008,8.007c4.422,0,8.007-3.585,8.007-8.007
			C32.03,3.585,28.445,0,24.023,0L24.023,0z"/>
	</g>
</g>
<g>
	<g>
		<path fill="#259ED9" d="M40.038,2c3.312,0,6.007,2.695,6.007,6.008s-2.695,6.007-6.007,6.007S34.03,11.32,34.03,8.008
			S36.726,2,40.038,2 M40.038,0c-4.423,0-8.008,3.585-8.008,8.008c0,4.422,3.585,8.007,8.008,8.007c4.422,0,8.007-3.585,8.007-8.007
			C48.045,3.585,44.46,0,40.038,0L40.038,0z"/>
	</g>
</g>
<g>
	<g>
		<path fill="#35BEB9" d="M56.053,2c3.312,0,6.007,2.695,6.007,6.008s-2.695,6.007-6.007,6.007s-6.008-2.695-6.008-6.007
			S52.741,2,56.053,2 M56.053,0c-4.423,0-8.008,3.585-8.008,8.008c0,4.422,3.585,8.007,8.008,8.007c4.422,0,8.007-3.585,8.007-8.007
			C64.061,3.585,60.476,0,56.053,0L56.053,0z"/>
	</g>
</g>
<g opacity="0.3">
	<path d="M77.379,11.06c0,0.07-0.028,0.125-0.069,0.181l-1.764,1.764c-0.056,0.042-0.111,0.069-0.181,0.069
		c-0.069,0-0.125-0.028-0.18-0.069l-3.069-3.069l-3.069,3.069c-0.055,0.042-0.111,0.069-0.18,0.069c-0.07,0-0.125-0.028-0.181-0.069
		l-1.764-1.764c-0.042-0.056-0.069-0.111-0.069-0.181c0-0.069,0.028-0.125,0.069-0.18l3.069-3.069l-3.069-3.069
		c-0.042-0.055-0.069-0.111-0.069-0.18c0-0.07,0.028-0.125,0.069-0.181l1.764-1.764c0.056-0.042,0.111-0.069,0.181-0.069
		c0.069,0,0.125,0.028,0.18,0.069l3.069,3.069l3.069-3.069c0.055-0.042,0.111-0.069,0.18-0.069c0.07,0,0.125,0.028,0.181,0.069
		l1.764,1.764c0.042,0.056,0.069,0.111,0.069,0.181c0,0.069-0.028,0.125-0.069,0.18l-3.069,3.069l3.069,3.069
		C77.352,10.935,77.379,10.991,77.379,11.06z"/>
</g>
</svg>
